<?xml version="1.0" standalone="no"?>
<!DOCTYPE svg PUBLIC "-//W3C//DTD SVG 20010904//EN"
 "http://www.w3.org/TR/2001/REC-SVG-20010904/DTD/svg10.dtd">
<svg version="1.0" xmlns="http://www.w3.org/2000/svg"
 width="256.000000pt" height="156.000000pt" viewBox="0 0 256.000000 156.000000"
 preserveAspectRatio="xMidYMid meet">

<g transform="translate(0.000000,156.000000) scale(0.100000,-0.100000)"
fill="#000000" stroke="none">
<path d="M1175 1474 c-38 -8 -113 -36 -165 -61 -79 -38 -108 -59 -180 -132
-130 -131 -193 -271 -207 -463 l-6 -88 210 0 209 0 22 -53 c31 -74 74 -121
139 -153 149 -73 335 1 390 155 l18 51 142 0 143 0 0 -32 c0 -18 -11 -64 -25
-102 -81 -230 -301 -386 -545 -386 -144 0 -280 54 -386 152 l-62 58 -71 0
c-39 0 -71 -3 -71 -6 0 -3 18 -29 40 -58 92 -116 248 -217 390 -250 93 -22
240 -20 334 4 99 25 217 87 289 151 147 131 237 330 237 524 l0 65 -208 0
-207 0 -23 48 c-53 111 -140 167 -262 167 -111 -1 -190 -47 -249 -145 -11 -19
-21 -43 -21 -52 0 -16 -14 -18 -150 -18 -170 0 -161 -6 -135 90 40 152 159
298 296 363 104 50 150 60 259 61 157 0 294 -55 405 -165 l51 -49 72 0 73 0
-30 43 c-42 60 -137 149 -201 189 -156 97 -337 129 -515 92z m169 -439 c27
-28 -10 -69 -40 -44 -17 14 -18 31 -2 47 16 16 23 15 42 -3z m-167 -91 c3 -8
-1 -23 -10 -31 -21 -21 -47 -9 -47 22 0 20 5 25 25 25 14 0 28 -7 32 -16z
m239 -14 c90 -56 108 -185 35 -263 -42 -46 -77 -60 -142 -55 -97 7 -159 72
-159 167 0 140 147 224 266 151z m109 0 c0 -18 -6 -26 -23 -28 -24 -4 -38 18
-28 44 3 9 15 14 28 12 17 -2 23 -10 23 -28z m-421 -116 c21 -8 21 -50 0 -58
-32 -12 -57 27 -32 52 14 14 12 14 32 6z m470 -9 c27 -28 -10 -69 -40 -44 -17
14 -18 31 -2 47 16 16 23 15 42 -3z m-406 -157 c18 -18 15 -36 -7 -48 -28 -14
-55 13 -41 41 12 22 30 25 48 7z m357 -18 c0 -18 -6 -26 -23 -28 -24 -4 -38
18 -28 44 3 9 15 14 28 12 17 -2 23 -10 23 -28z m-180 -80 c0 -18 -6 -26 -23
-28 -13 -2 -25 3 -28 12 -10 26 4 48 28 44 17 -2 23 -10 23 -28z"/>
<path d="M512 1138 c-9 -9 -12 -100 -12 -349 0 -294 2 -340 16 -353 20 -21
169 -24 161 -3 -67 151 -93 277 -83 408 7 94 35 209 67 270 l19 39 -78 0 c-47
0 -83 -5 -90 -12z"/>
<path d="M1973 1133 c4 -10 21 -58 39 -108 30 -85 32 -98 32 -230 0 -149 -12
-215 -59 -321 l-24 -55 87 3 87 3 0 360 0 360 -84 3 c-77 3 -83 1 -78 -15z"/>
<path d="M1802 1108 c3 -9 30 -14 76 -16 61 -2 71 -1 66 13 -8 20 -148 23
-142 3z"/>
<path d="M412 1025 c-67 -58 -95 -114 -100 -204 -6 -100 19 -160 92 -228 l51
-48 3 133 c1 73 1 189 0 258 l-3 125 -43 -36z"/>
<path d="M2180 806 c0 -141 2 -256 5 -256 18 0 102 93 121 135 27 56 32 165
11 222 -18 49 -70 116 -105 136 l-32 18 0 -255z"/>
<path d="M1840 1040 c0 -6 30 -10 71 -10 44 0 68 4 64 10 -3 6 -35 10 -71 10
-36 0 -64 -4 -64 -10z"/>
<path d="M1870 980 c0 -6 27 -10 60 -10 33 0 60 4 60 10 0 6 -27 10 -60 10
-33 0 -60 -4 -60 -10z"/>
<path d="M650 590 c0 -6 28 -10 65 -10 37 0 65 4 65 10 0 6 -28 10 -65 10 -37
0 -65 -4 -65 -10z"/>
<path d="M670 530 c0 -6 30 -10 71 -10 44 0 68 4 64 10 -3 6 -35 10 -71 10
-36 0 -64 -4 -64 -10z"/>
<path d="M700 470 c0 -6 30 -10 70 -10 40 0 70 4 70 10 0 6 -30 10 -70 10 -40
0 -70 -4 -70 -10z"/>
</g>
</svg>
